<?xml version="1.0" standalone="no"?>
<!DOCTYPE svg PUBLIC "-//W3C//DTD SVG 20010904//EN"
 "http://www.w3.org/TR/2001/REC-SVG-20010904/DTD/svg10.dtd">
<svg version="1.0" xmlns="http://www.w3.org/2000/svg"
 width="512.000000pt" height="512.000000pt" viewBox="0 0 512.000000 512.000000"
 preserveAspectRatio="xMidYMid meet">

<g transform="translate(0.000000,512.000000) scale(0.100000,-0.100000)"
fill="#000000" stroke="none">
<path d="M2370 5114 c-19 -2 -78 -9 -130 -15 -791 -90 -1522 -586 -1924 -1305
-146 -262 -252 -588 -297 -914 -18 -125 -18 -515 0 -640 105 -762 511 -1409
1146 -1826 840 -552 1956 -550 2797 4 1266 835 1539 2571 591 3747 -409 507
-974 829 -1633 930 -100 15 -472 28 -550 19z m391 -404 c160 -16 310 -48 473
-101 488 -160 893 -481 1171 -929 237 -383 349 -872 304 -1326 -67 -678 -442
-1274 -1029 -1639 -383 -237 -871 -349 -1326 -304 -854 84 -1578 664 -1843
1475 -148 452 -148 896 0 1348 123 377 353 720 649 969 449 378 1033 562 1601
507z"/>
<path d="M1315 3040 l-140 -140 693 -693 692 -692 692 692 693 693 -143 142
-142 143 -550 -550 -550 -550 -548 548 c-301 301 -549 547 -552 547 -3 0 -68
-63 -145 -140z"/>
</g>
</svg>
