<?xml version="1.0" standalone="no"?>
<!DOCTYPE svg PUBLIC "-//W3C//DTD SVG 20010904//EN"
 "http://www.w3.org/TR/2001/REC-SVG-20010904/DTD/svg10.dtd">
<svg version="1.0" xmlns="http://www.w3.org/2000/svg"
 width="32.000000pt" height="32.000000pt" viewBox="0 0 32.000000 32.000000"
 preserveAspectRatio="xMidYMid meet">

<g transform="translate(0.000000,32.000000) scale(0.100000,-0.100000)"
fill="#000000" stroke="none">
<path d="M95 306 c-101 -44 -125 -178 -46 -257 65 -65 157 -65 222 0 124 124
-15 327 -176 257z m135 -32 c81 -48 81 -180 0 -228 -36 -21 -104 -21 -140 0
-80 48 -81 178 -1 227 34 21 105 21 141 1z"/>
<path d="M85 190 c-5 -7 9 -28 34 -53 l41 -42 41 42 c25 25 39 46 34 53 -5 8
-18 2 -41 -21 l-34 -33 -34 33 c-23 23 -36 29 -41 21z"/>
</g>
</svg>
